<svg xmlns="http://www.w3.org/2000/svg" width="186.001" height="146" viewBox="0 0 186.001 146">
  <g id="server" transform="translate(-616 -339)">
    <path id="Sustracción_58" data-name="Sustracción 58" d="M-6023-333h-150a17.88,17.88,0,0,1-12.728-5.272A17.881,17.881,0,0,1-6191-351a17.881,17.881,0,0,1,5.272-12.728A17.88,17.88,0,0,1-6173-369h150a17.882,17.882,0,0,1,12.728,5.272A17.883,17.883,0,0,1-6005-351a17.883,17.883,0,0,1-5.272,12.728A17.882,17.882,0,0,1-6023-333Zm-153-25v14h14v-14Z" transform="translate(6807 708)" fill="#fff"/>
    <path id="Sustracción_59" data-name="Sustracción 59" d="M-6023-333h-150a17.88,17.88,0,0,1-12.728-5.272A17.881,17.881,0,0,1-6191-351a17.881,17.881,0,0,1,5.272-12.728A17.88,17.88,0,0,1-6173-369h150a17.882,17.882,0,0,1,12.728,5.272A17.883,17.883,0,0,1-6005-351a17.883,17.883,0,0,1-5.272,12.728A17.882,17.882,0,0,1-6023-333Zm-153-25v14h14v-14Z" transform="translate(6807 763)" fill="#fff"/>
    <path id="Sustracción_60" data-name="Sustracción 60" d="M-6023-333h-150a17.88,17.88,0,0,1-12.728-5.272A17.881,17.881,0,0,1-6191-351a17.881,17.881,0,0,1,5.272-12.728A17.88,17.88,0,0,1-6173-369h150a17.882,17.882,0,0,1,12.728,5.272A17.883,17.883,0,0,1-6005-351a17.883,17.883,0,0,1-5.272,12.728A17.882,17.882,0,0,1-6023-333Zm-153-25v14h14v-14Z" transform="translate(6807 818)" fill="#fff"/>
  </g>
</svg>
